# xmcd CD database file
#
# Track frame offsets:
#	150
#	29880
#	42865
#	59992
#	75782
#	100890
#	111407
#	123067
#	136832
#	156327
#	176852
#	194312
#	221932
#	260950
#
# Disc length: 3861 seconds
#
# Revision: 0
# Processed by: cddbd v1.4PL0 Copyright (c) Steve Scherf et al.
# Submitted via: CDex 1.50beta10
#
DISCID=d70f130e
DTITLE=Various Artist - Totally Jazz Piano vol.2
DYEAR=1999
DGENRE=Jazz
TTITLE0=Art Blakey and T.S. Monk/In Walked Bud
TTITLE1=Bud Powell/Dance Of The Infidels
TTITLE2=John Lewis/Now's The Time
TTITLE3=The Red Garland Trio/Constellation
TTITLE4=Oscar Peterson/Blues Etude
TTITLE5=Art Tatum/Tiger Rag
TTITLE6=Earl Hines/Piano Man
TTITLE7=Fats Waller/Ain't Misbehavin'
TTITLE8=Duke Ellington/I Can't Get Started
TTITLE9=Ahmad Jamal/Poinciana
TTITLE10=Joe Zawinul/My One and Only Love
TTITLE11=Chick Corea/Tones For Joans Bones
TTITLE12=McCOY Tyner/My Favourites Things
TTITLE13=Dave Brubeck/Someday My Prince Will Come
EXTD=YEAR: 1999
EXTT0=
EXTT1=
EXTT2=
EXTT3=
EXTT4=
EXTT5=
EXTT6=
EXTT7=
EXTT8=
EXTT9=
EXTT10=
EXTT11=
EXTT12=
EXTT13=
PLAYORDER=
